<svg width="256" height="275" viewBox="0 0 256 275" fill="none" xmlns="http://www.w3.org/2000/svg">
<path d="M252.154 194.867C250.923 191.411 249.484 188.067 248.115 184.969C246.008 180.203 243.801 175.428 241.666 170.812L241.497 170.446C222.457 129.216 202.022 87.42 180.759 46.224L179.856 44.474C177.687 40.268 175.445 35.918 173.144 31.644C170.415 26.2341 167.103 21.138 163.269 16.446C158.95 11.2947 153.554 7.15314 147.461 4.31301C141.364 1.4716 134.719 -0.000375131 127.993 0.000488661C121.267 0.00135245 114.622 1.47504 108.526 4.31801C102.434 7.15968 97.0394 11.3026 92.722 16.455C88.8919 21.148 85.5825 26.2428 82.852 31.65C80.532 35.963 78.268 40.353 76.079 44.599L75.241 46.224C53.977 87.424 33.542 129.218 14.503 170.445L14.225 171.045C12.127 175.585 9.958 180.281 7.886 184.967C6.516 188.063 5.08 191.404 3.847 194.869C0.316618 204.307 -0.808552 214.475 0.572997 224.457C2.03946 234.547 6.11948 244.078 12.408 252.103C18.7021 260.135 26.9842 266.384 36.435 270.232C43.5771 273.121 51.2117 274.598 58.916 274.581C61.336 274.581 63.755 274.439 66.159 274.159C75.9022 272.918 85.3003 269.747 93.804 264.832C104.956 258.567 115.969 249.386 128 236.266C140.031 249.386 151.044 258.567 162.196 264.832C170.7 269.747 180.098 272.918 189.841 274.159C192.245 274.44 194.664 274.58 197.085 274.581C204.789 274.598 212.423 273.121 219.565 270.232C229.016 266.383 237.298 260.134 243.592 252.102C249.881 244.077 253.961 234.547 255.428 224.457C256.808 214.475 255.683 204.306 252.154 194.867V194.867ZM128 209.17C113.107 190.292 103.55 172.761 100.196 158.064C98.8221 152.557 98.4978 146.841 99.24 141.214C99.8265 137.088 101.342 133.149 103.672 129.694C106.542 125.974 110.227 122.963 114.444 120.892C118.664 118.821 123.302 117.744 128.002 117.744C132.703 117.744 137.341 118.822 141.56 120.894C145.777 122.965 149.461 125.977 152.33 129.697C154.66 133.153 156.175 137.093 156.762 141.219C157.503 146.848 157.178 152.566 155.802 158.075C152.444 172.77 142.89 190.296 128 209.17ZM238.032 221.972C237.007 229.027 234.154 235.691 229.757 241.302C225.356 246.918 219.565 251.288 212.957 253.979C206.271 256.657 199.018 257.606 191.869 256.737C184.439 255.78 177.277 253.335 170.814 249.546C160.888 243.969 150.84 235.408 139.534 222.85C157.533 200.655 168.773 180.198 172.934 161.977C174.807 154.315 175.213 146.369 174.131 138.556C173.149 131.825 170.65 125.404 166.824 119.78C162.338 113.708 156.49 108.774 149.749 105.375C143.004 101.974 135.556 100.203 128.002 100.203C120.448 100.202 112.999 101.973 106.254 105.373C99.5131 108.771 93.6644 113.704 89.179 119.776C85.3531 125.399 82.8543 131.817 81.871 138.547C80.7883 146.356 81.1921 154.3 83.061 161.959C87.221 180.188 98.461 200.649 116.467 222.851C105.16 235.408 95.112 243.969 85.186 249.547C78.7226 253.335 71.5614 255.781 64.131 256.737C56.9813 257.606 49.7279 256.657 43.042 253.979C36.4338 251.288 30.6428 246.918 26.242 241.302C21.8458 235.69 18.9938 229.027 17.969 221.972C16.9839 214.803 17.8221 207.501 20.406 200.741C21.389 197.98 22.538 195.27 23.962 192.051C25.977 187.496 28.115 182.866 30.183 178.39L30.461 177.788C49.394 136.792 69.716 95.23 90.864 54.255L91.706 52.624C93.859 48.446 96.086 44.127 98.332 39.954C100.481 35.6519 103.082 31.5907 106.09 27.839C108.758 24.6171 112.104 22.024 115.89 20.245C121.599 17.5617 128.038 16.8511 134.195 18.225C140.352 19.5988 145.878 22.9792 149.905 27.835C152.916 31.5839 155.517 35.644 157.665 39.946C159.89 44.082 162.097 48.362 164.232 52.501L165.136 54.257C186.283 95.227 206.605 136.788 225.54 177.792L225.71 178.161C227.814 182.713 229.99 187.418 232.038 192.052C233.464 195.276 234.615 197.988 235.595 200.739C238.178 207.5 239.016 214.802 238.032 221.972V221.972Z" fill="#FF385C"/>
</svg>
